<?xml version="1.0" encoding="UTF-8" standalone="no"?>
<!DOCTYPE svg PUBLIC "-//W3C//DTD SVG 1.1//EN" "http://www.w3.org/Graphics/SVG/1.1/DTD/svg11.dtd">
<svg width="100%" height="100%" viewBox="0 0 4961 4961" version="1.1" xmlns="http://www.w3.org/2000/svg" xmlns:xlink="http://www.w3.org/1999/xlink" xml:space="preserve" xmlns:serif="http://www.serif.com/" style="fill-rule:evenodd;clip-rule:evenodd;stroke-linejoin:round;stroke-miterlimit:2;">
    <g transform="matrix(0.781582,0,0,1.89805,461.878,-486.839)">
        <rect x="1211" y="1710" width="2743" height="770.315" style="fill:rgb(1,87,153);"/>
    </g>
    <g transform="matrix(1.24412,0,0,1.89805,-732.638,-2501.97)">
        <path d="M3954,2027.87L3954,2162.44C3954,2337.88 3736.7,2480.32 3469.05,2480.32L1695.95,2480.32C1428.3,2480.32 1211,2337.88 1211,2162.44L1211,2027.87C1211,1852.43 1428.3,1710 1695.95,1710L3469.05,1710C3736.7,1710 3954,1852.43 3954,2027.87Z" style="fill:rgb(1,87,153);"/>
    </g>
    <g transform="matrix(1.79329,0,0,1.66176,-2150.86,-1326.51)">
        <path d="M3954,2095.16C3954,2307.73 3794.08,2480.32 3597.09,2480.32L1567.91,2480.32C1370.92,2480.32 1211,2307.73 1211,2095.16C1211,1882.58 1370.92,1710 1567.91,1710L3597.09,1710C3794.08,1710 3954,1882.58 3954,2095.16Z"/>
    </g>
    <g transform="matrix(1.24412,0,0,1.89805,-732.638,-1181.54)">
        <path d="M3954,2027.87L3954,2162.44C3954,2337.88 3736.7,2480.32 3469.05,2480.32L1695.95,2480.32C1428.3,2480.32 1211,2337.88 1211,2162.44L1211,2027.87C1211,1852.43 1428.3,1710 1695.95,1710L3469.05,1710C3736.7,1710 3954,1852.43 3954,2027.87Z"/>
    </g>
    <g transform="matrix(0.57401,0,0,0.784719,997.933,1412.96)">
        <path d="M3954,2008.98L3954,2181.33C3954,2346.35 3770.85,2480.32 3545.27,2480.32L1619.73,2480.32C1394.15,2480.32 1211,2346.35 1211,2181.33L1211,2008.98C1211,1843.97 1394.15,1710 1619.73,1710L3545.27,1710C3770.85,1710 3954,1843.97 3954,2008.98Z" style="fill:white;"/>
    </g>
    <g transform="matrix(1.66371,-6.79565e-18,-4.13524e-18,1.66253,-1528.98,-2251.8)">
        <ellipse cx="1622.5" cy="2650.74" rx="214.5" ry="214.736" style="fill:rgb(255,247,247);"/>
    </g>
    <g transform="matrix(1.66371,-6.79565e-18,-4.13524e-18,1.66253,1130.4,-2251.8)">
        <ellipse cx="1622.5" cy="2650.74" rx="214.5" ry="214.736" style="fill:rgb(255,247,247);"/>
    </g>
</svg>
